# AST/ASF file generated using VICON BodyLanguage
# -----------------------------------------------
:version 1.10
:name VICON
:units
  mass 1.0
  length 0.45
  angle deg
:documentation
   .ast/.asf automatically generated from VICON data using
   VICON BodyBuilder and BodyLanguage model FoxedUp or BRILLIANT.MOD
:root
   order TX TY TZ RX RY RZ
   axis XYZ
   position 0 0 0  
   orientation 0 0 0 
:bonedata
  begin
     id 1 
     name lhipjoint
     direction 0.621036 -0.695554 0.361275 
     length 2.46325 
     axis 0 0 0  XYZ
  end
  begin
     id 2 
     name lfemur
     direction 0.34202 -0.939693 0  
     length 6.54784  
     axis 0 0 20  XYZ
    dof rx ry rz
    limits (-160.0 20.0)
           (-70.0 70.0)
           (-60.0 70.0)
  end
  begin
     id 3 
     name ltibia
     direction 0.34202 -0.939693 0   
     length 7.84737   
     axis 0 0 20   XYZ
    dof rx
    limits (-10.0 170.0)
  end
  begin
     id 4 
     name lfoot
     direction 0.0790693 -0.217241 0.97291   
     length 2.59747   
     axis -90 7.62852e-016 20   XYZ
    dof rx rz
    limits (-45.0 90.0)
           (-70.0 20.0)
  end
  begin
     id 5 
     name ltoes
     direction 1.53572e-011 -4.21898e-011 1   
     length 1.29919   
     axis -90 7.62852e-016 20   XYZ
    dof rx
    limits (-90.0 20.0)
  end
  begin
     id 6 
     name rhipjoint
     direction -0.602353 -0.708375 0.367935   
     length 2.41867  
     axis 0 0 0  XYZ 
  end
  begin
     id 7 
     name rfemur
     direction -0.34202 -0.939693 0   
     length 6.92065   
     axis 0 0 -20   XYZ
    dof rx ry rz
    limits (-160.0 20.0)
           (-70.0 70.0)
           (-70.0 60.0)
  end
  begin
     id 8 
     name rtibia
     direction -0.34202 -0.939693 0   
     length 7.88883   
     axis 0 0 -20   XYZ
    dof rx
    limits (-10.0 170.0)
 end
 begin
     id 9 
     name rfoot
     direction -0.0768692 -0.211196 0.974416   
     length 2.43714  
     axis -90 -7.62852e-016 -20   XYZ
    dof rx rz
    limits (-45.0 90.0)
           (-20.0 70.0)
  end
  begin
     id 10 
     name rtoes
     direction -1.53575e-011 -4.21933e-011 1   
     length 1.22113   
     axis -90 -7.62852e-016 -20   XYZ
    dof rx
    limits (-90.0 20.0)
  end
  begin
     id 11 
     name lowerback
     direction 0.0197937 0.98943 -0.143655   
     length 2.16931   
     axis 0 0 0   XYZ
    dof rx ry rz
    limits (-20.0 45.0)
           (-30.0 30.0)
           (-30.0 30.0)
  end
  begin
     id 12 
     name upperback
     direction -0.00183968 0.999975 0.00684288   
     length 2.17221   
     axis 0 0 0   XYZ
    dof rx ry rz
    limits (-20.0 45.0)
           (-30.0 30.0)
           (-30.0 30.0)
  end
  begin
     id 13 
     name thorax
     direction -0.00950244 0.997208 0.0740685   
     length 2.22549   
     axis 0 0 0   XYZ
    dof rx ry rz
    limits (-20.0 45.0)
           (-30.0 30.0)
           (-30.0 30.0)
  end
  begin
     id 14 
     name lowerneck
     direction 0.0218238 0.996215 0.0841425   
     length 1.77269   
     axis 0 0 0   XYZ
    dof rx ry rz
    limits (-20.0 45.0)
           (-30.0 30.0)
           (-30.0 30.0)
  end
  begin
     id 15 
     name upperneck
     direction -0.00430652 0.994214 -0.107332   
     length 1.76534   
     axis 0 0 0   XYZ
    dof rx ry rz
    limits (-20.0 45.0)
           (-30.0 30.0)
           (-30.0 30.0)
  end
  begin
     id 16
     name head
     direction -0.00328946 0.998959 -0.0454998  
     length 1.82634  
     axis 0 0 0   XYZ
    dof rx ry rz
    limits (-20.0 45.0)
           (-30.0 30.0)
           (-30.0 30.0)
  end
  begin
     id 17 
     name lclavicle
     direction 0.970962 0.239191 0.00450212  
     length 3.84872  
     axis 0 0 0   XYZ
    dof ry rz
    limits (-20.0 10.0)
           (0.0 20.0)
  end
  begin
     id 18 
     name lhumerus
     direction 1 -4.48966e-011 5.74696e-028   
     length 5.22771   
     axis 180 -30 -90   XYZ
    dof rx ry rz
    limits (-60.0 90.0)
           (-90.0 90.0)
           (-90.0 90.0)
  end
  begin
     id 19
     name lradius
     direction 1 -4.4896e-011 4.25109e-027   
     length 3.45251   
     axis 180 -30 -90   XYZ
    dof rx
    limits (-10.0 170.0)
  end
  begin
     id 20
     name lwrist
     direction 1 -4.48971e-011 1.15382e-027   
     length 1.72626   
     axis -5.52449e-016 90 90   XYZ
    dof ry
    limits (-180.0 0.0)
 end
  begin
     id 21 
     name lhand
     direction 1 -4.49034e-011 2.30765e-027   
     length 0.552119   
     axis -1.47248e-015 90 90   XYZ
    dof rx rz
    limits (-90.0 90.0)
           (-45.0 45.0)
  end
  begin
     id 22 
     name lfingers
     direction 1 -4.48951e-011 4.61529e-027   
     length 0.445133   
     axis -2.94495e-015 90 90   XYZ
    dof rx
    limits (0.0 90.0)
  end
  begin
     id 23
     name lthumb
     direction 0.707107 -6.34991e-011 0.707107   
     length 0.639124   
     axis -90 45 2.85299e-015   XYZ
    dof rx rz
    limits (-45.0 45.0)
           (-45.0 45.0)
  end
  begin
     id 24 
     name rclavicle
     direction -0.97424 0.222511 -0.0366699   
     length 3.73439  
     axis 0 0 0   XYZ 
    dof ry rz
    limits (-10.0 20.0)
           (-20.0 0.0)
  end
  begin
     id 25 
     name rhumerus
     direction -1 -4.48956e-011 -4.97258e-028  
     length 5.2398   
     axis 180 30 90   XYZ
    dof rx ry rz
    limits (-90.0 60.0)
           (-90.0 90.0)
           (-90.0 90.0)
  end
  begin
     id 26 
     name rradius
     direction -1 -4.4897e-011 -1.72611e-027   
     length 3.48042   
     axis 180 30 90   XYZ
    dof rx
    limits (-10.0 170.0)
  end
  begin
     id 27 
     name rwrist
     direction -1 -4.48976e-011 1.15382e-027   
     length 1.74021   
     axis -5.52449e-016 -90 -90   XYZ
    dof ry
    limits (-180.0 0.0)
  end
  begin
     id 28
     name rhand
     direction -1 -4.48963e-011 2.30765e-027   
     length 0.618713   
     axis -1.47248e-015 -90 -90   XYZ
    dof rx rz
    limits (-90.0 90.0)
           (-45.0 45.0)
  end
  begin
     id 29
     name rfingers
     direction -1 -4.4888e-011 4.61529e-027   
     length 0.498823   
     axis -2.94495e-015 -90 -90   XYZ
    dof rx
    limits (0.0 90.0)
  end
  begin
     id 30
     name rthumb
     direction -0.707107 -6.34968e-011 0.707107   
     length 0.716213   
     axis -90 -45 -2.85299e-015   XYZ
    dof rx rz
    limits (-45.0 45.0)
           (-45.0 45.0)
  end
:hierarchy
  begin
    root lhipjoint rhipjoint lowerback
    lhipjoint lfemur
    lfemur ltibia
    ltibia lfoot
    lfoot ltoes
    rhipjoint rfemur
    rfemur rtibia
    rtibia rfoot
    rfoot rtoes
    lowerback upperback
    upperback thorax
    thorax lowerneck lclavicle rclavicle
    lowerneck upperneck
    upperneck head
    lclavicle lhumerus
    lhumerus lradius
    lradius lwrist
    lwrist lhand lthumb
    lhand lfingers
    rclavicle rhumerus
    rhumerus rradius
    rradius rwrist
    rwrist rhand rthumb
    rhand rfingers
  end

#!OML:ASF G:\JayActor3\Patient Classification 1\Patient 1\Session 5\male.ASF
:FULLY-SPECIFIED
:DEGREES
280
root 41.9442 16.3898 -4.25029 -75.7837 83.2734 -74.5057
lowerback 2.6909 -1.0489 4.65792
upperback 2.52118 -1.28231 0.387595
thorax 0.990394 -0.561171 -2.18718
lowerneck -8.6064 0.0605413 2.16635
upperneck 11.0692 -0.358506 1.63316
head 4.73488 0.0391709 0.129658
rclavicle -2.09718e-014 -1.74931e-014
rhumerus -30.6607 -1.30638 -89.2735
rradius 32.1798
rwrist -1.56042
rhand -19.0742 -7.42743
rfingers 7.12502
rthumb 7.23353 -37.2838
lclavicle -2.09718e-014 -1.74931e-014
lhumerus -27.5692 2.6936 83.079
lradius 27.133
lwrist 16.2189
lhand -19.7497 12.5581
lfingers 7.12502
lthumb 6.58149 42.4359
rfemur 2.35235 1.5125 32.6488
rtibia 23.0169
rfoot -22.8317 -10.4862
rtoes 12.3128
lfemur -27.6442 10.8442 -10.6937
ltibia 27.3895
lfoot 4.00426 0.513603
ltoes -17.1574
281
root 41.8651 16.3963 -4.23067 -77.3588 83.3005 -75.9693
lowerback 2.77708 -1.05737 4.65542
upperback 2.58197 -1.28871 0.406323
thorax 1.00475 -0.562416 -2.16543
lowerneck -8.58441 0.0253098 2.13488
upperneck 11.131 -0.407029 1.68284
head 4.75031 0.0185536 0.147033
rclavicle 2.28602e-015 1.27222e-014
rhumerus -30.5997 -1.40247 -89.1571
rradius 31.886
rwrist -1.32333
rhand -19.121 -7.38473
rfingers 7.12502
rthumb 7.18838 -37.2426
lclavicle 2.28602e-015 1.27222e-014
lhumerus -27.6109 2.75158 83.0941
lradius 27.0824
lwrist 16.1308
lhand -19.9865 12.6126
lfingers 7.12502
lthumb 6.35286 42.4973
rfemur 2.08224 1.42731 32.7526
rtibia 23.1678
rfoot -22.7335 -10.5985
rtoes 12.4653
lfemur -28.107 10.9149 -10.6446
ltibia 28.7461
lfoot 2.70023 0.431432
ltoes -17.9361
282
root 41.7883 16.4035 -4.21196 -78.8625 83.3717 -77.3537
lowerback 2.85313 -1.06491 4.61297
upperback 2.6398 -1.29532 0.40701
thorax 1.02206 -0.564344 -2.14001
lowerneck -8.57079 -0.00977013 2.1095
upperneck 11.2211 -0.456163 1.72794
head 4.77588 -0.00178619 0.161991
rclavicle 1.16786e-014 -7.95139e-015
rhumerus -30.5363 -1.56859 -89.0239
rradius 31.5582
rwrist -1.03274
rhand -19.1293 -7.42909
rfingers 7.12502
rthumb 7.18029 -37.2873
lclavicle 1.16786e-014 -7.95139e-015
lhumerus -27.6659 2.80373 83.1021
lradius 27.0052
lwrist 16.0545
lhand -20.2213 12.6546
lfingers 7.12502
lthumb 6.12613 42.546
rfemur 1.83779 1.38814 32.8099
rtibia 23.309
rfoot -22.657 -10.7485
rtoes 12.619
lfemur -28.5138 10.9786 -10.6642
ltibia 30.1668
lfoot 1.471 0.615225
ltoes -18.561
283
root 41.7139 16.411 -4.19424 -80.3237 83.4826 -78.6906
lowerback 2.92087 -1.07175 4.53692
upperback 2.69071 -1.30221 0.391055
thorax 1.03714 -0.567127 -2.11299
lowerneck -8.56308 -0.0450852 2.08852
upperneck 11.3387 -0.50602 1.76766
head 4.81099 -0.0220206 0.174549
rclavicle -9.93923e-017 0
rhumerus -30.4829 -1.80104 -88.8767
rradius 31.2094
rwrist -0.711038
rhand -19.1194 -7.51037
rfingers 7.12502
rthumb 7.18985 -37.3682
lclavicle -9.93923e-017 0
lhumerus -27.7427 2.84921 83.1012
lradius 26.9108
lwrist 15.9953
lhand -20.4258 12.6919
lfingers 7.12502
lthumb 5.92873 42.5889
rfemur 1.61109 1.38559 32.8213
rtibia 23.4489
rfoot -22.6025 -10.9207
rtoes 12.7787
lfemur -28.8684 11.0457 -10.7481
ltibia 31.6514
lfoot 0.359812 1.05327
ltoes -19.0191
284
root 41.6415 16.4187 -4.17743 -81.7797 83.624 -80.026
lowerback 2.98077 -1.07806 4.43726
upperback 2.73117 -1.30938 0.36176
thorax 1.04596 -0.570801 -2.08649
lowerneck -8.56904 -0.0806647 2.07169
upperneck 11.4854 -0.556617 1.79944
head 4.85736 -0.0422828 0.18394
rclavicle 1.49089e-015 -1.03368e-014
rhumerus -30.4467 -2.09 -88.7182
rradius 30.853
rwrist -0.384197
rhand -19.0918 -7.60556
rfingers 7.12502
rthumb 7.21656 -37.4625
lclavicle 1.49089e-015 -1.03368e-014
lhumerus -27.8376 2.88975 83.0922
lradius 26.8058
lwrist 15.9533
lhand -20.5728 12.7477
lfingers 7.12502
lthumb 5.78678 42.6487
rfemur 1.38726 1.4034 32.7933
rtibia 23.5927
rfoot -22.5653 -11.1
rtoes 12.9479
lfemur -29.1886 11.1177 -10.8813
ltibia 33.2039
lfoot -0.628669 1.68598
ltoes -19.2046
285
root 41.5708 16.4265 -4.16166 -83.2578 83.7913 -81.3946
lowerback 3.03155 -1.08541 4.31805
upperback 2.75609 -1.3189 0.322314
thorax 1.04389 -0.576572 -2.05944
lowerneck -8.57715 -0.115266 2.05397
upperneck 11.6506 -0.605173 1.82423
head 4.90986 -0.061597 0.191449
rclavicle -1.49089e-014 -4.77083e-015
rhumerus -30.4376 -2.42129 -88.5503
rradius 30.5029
rwrist -0.0726206
rhand -19.0753 -7.65141
rfingers 7.12502
rthumb 7.23242 -37.5078
lclavicle -1.49089e-014 -4.77083e-015
lhumerus -27.9619 2.92934 83.0764
lradius 26.7035
lwrist 15.9347
lhand -20.6458 12.8347
lfingers 7.12502
lthumb 5.71628 42.7376
rfemur 1.15687 1.42111 32.7252
rtibia 23.7407
rfoot -22.5391 -11.2699
rtoes 13.114
lfemur -29.4895 11.1924 -11.055
ltibia 34.8275
lfoot -1.49827 2.4329
ltoes -19.1467
286
root 41.5019 16.4345 -4.14704 -84.7528 83.968 -82.7949
lowerback 3.07191 -1.09422 4.19373
upperback 2.76336 -1.33109 0.278874
thorax 1.02932 -0.584454 -2.03354
lowerneck -8.58801 -0.146847 2.03513
upperneck 11.8345 -0.648989 1.84293
head 4.96862 -0.0785928 0.197559
rclavicle -9.0447e-015 -1.59028e-015
rhumerus -30.4621 -2.77308 -88.3776
rradius 30.1703
rwrist 0.203106
rhand -19.0878 -7.59713
rfingers 7.12502
rthumb 7.22041 -37.4539
lclavicle -9.0447e-015 -1.59028e-015
lhumerus -28.1205 2.96592 83.0562
lradius 26.6061
lwrist 15.9367
lhand -20.6418 12.9427
lfingers 7.12502
lthumb 5.72016 42.8455
rfemur 0.915971 1.43024 32.6317
rtibia 23.8909
rfoot -22.5153 -11.4238
rtoes 13.2778
lfemur -29.7789 11.2603 -11.2418
ltibia 36.5214
lfoot -2.27325 3.21754
ltoes -18.8483
287
root 41.4344 16.4423 -4.13364 -86.3113 84.1395 -84.2817
lowerback 3.09689 -1.10403 4.07914
upperback 2.75173 -1.34528 0.237261
thorax 1.00367 -0.593876 -2.01124
lowerneck -8.60062 -0.176767 2.01576
upperneck 12.0289 -0.68914 1.84984
head 5.03095 -0.0943434 0.200335
rclavicle 8.05078e-015 3.97569e-015
rhumerus -30.5199 -3.12875 -88.2006
rradius 29.8631
rwrist 0.43299
rhand -19.1148 -7.54126
rfingers 7.12502
rthumb 7.19433 -37.399
lclavicle 8.05078e-015 3.97569e-015
lhumerus -28.3051 2.99095 83.0403
lradius 26.5115
lwrist 15.9616
lhand -20.5683 13.0726
lfingers 7.12502
lthumb 5.79117 42.9735
rfemur 0.6577 1.42106 32.5274
rtibia 24.0382
rfoot -22.489 -11.5603
rtoes 13.426
lfemur -30.07 11.3192 -11.4253
ltibia 38.2802
lfoot -2.96348 3.96589
ltoes -18.4114
288
root 41.3684 16.4497 -4.12153 -87.9054 84.2917 -85.827
lowerback 3.10112 -1.11477 3.98747
upperback 2.72494 -1.36136 0.201684
thorax 0.973641 -0.604365 -1.99571
lowerneck -8.60918 -0.204248 1.99222
upperneck 12.2222 -0.724404 1.85047
head 5.09232 -0.108326 0.202151
rclavicle 1.49089e-015 -1.19271e-015
rhumerus -30.6069 -3.47183 -88.0243
rradius 29.5866
rwrist 0.615438
rhand -19.1551 -7.47736
rfingers 7.12502
rthumb 7.15545 -37.3364
lclavicle 1.49089e-015 -1.19271e-015
lhumerus -28.5084 3.0049 83.0293
lradius 26.4129
lwrist 15.9996
lhand -20.4519 13.1919
lfingers 7.12502
lthumb 5.90356 43.0896
rfemur 0.384403 1.39059 32.4261
rtibia 24.1789
rfoot -22.4571 -11.6757
rtoes 13.563
lfemur -30.3608 11.3705 -11.5873
ltibia 40.093
lfoot -3.58436 4.62897
ltoes -17.9045
289
root 41.3039 16.4568 -4.11078 -89.5297 84.4162 -87.4225
lowerback 3.08218 -1.12472 3.92839
upperback 2.68791 -1.37686 0.174005
thorax 0.945652 -0.614317 -1.99065
lowerneck -8.61748 -0.230805 1.96363
upperneck 12.4081 -0.757105 1.84729
head 5.15138 -0.121708 0.203753
rclavicle -2.127e-014 1.39149e-014
rhumerus -30.7168 -3.79223 -87.8526
rradius 29.345
rwrist 0.748293
rhand -19.1913 -7.43699
rfingers 7.12502
rthumb 7.12053 -37.2972
lclavicle -2.127e-014 1.39149e-014
lhumerus -28.7207 3.0041 83.0267
lradius 26.3096
lwrist 16.0341
lhand -20.3129 13.3114
lfingers 7.12502
lthumb 6.03777 43.2053
rfemur 0.100071 1.34431 32.3388
rtibia 24.3126
rfoot -22.4205 -11.7758
rtoes 13.6907
lfemur -30.6419 11.4105 -11.7164
ltibia 41.9445
lfoot -4.14993 5.17401
ltoes -17.3874
290
root 41.2407 16.463 -4.10125 -91.1044 84.5077 -88.9854
lowerback 3.0401 -1.13087 3.90558
upperback 2.64546 -1.38766 0.156229
thorax 0.924852 -0.621434 -1.99623
lowerneck -8.62135 -0.257013 1.93353
upperneck 12.573 -0.787808 1.83678
head 5.20319 -0.135167 0.203424
rclavicle 1.74931e-014 9.93923e-015
rhumerus -30.8426 -4.08843 -87.685
rradius 29.1388
rwrist 0.840495
rhand -19.2241 -7.40211
rfingers 7.12502
rthumb 7.08886 -37.2634
lclavicle 1.74931e-014 9.93923e-015
lhumerus -28.9361 2.98588 83.0351
lradius 26.2031
lwrist 16.0581
lhand -20.1772 13.4042
lfingers 7.12502
lthumb 6.16879 43.2944
rfemur -0.192334 1.28936 32.2732
rtibia 24.4403
rfoot -22.382 -11.8562
rtoes 13.8187
lfemur -30.9028 11.4426 -11.8049
ltibia 43.8164
lfoot -4.66021 5.58766
ltoes -16.9298
291
root 41.1787 16.4681 -4.0929 -92.5715 84.5646 -90.4523
lowerback 2.97908 -1.13263 3.92033
upperback 2.60148 -1.39274 0.148391
thorax 0.912919 -0.625074 -2.01312
lowerneck -8.61862 -0.283125 1.90008
upperneck 12.7091 -0.817125 1.82382
head 5.24496 -0.148944 0.20294
rclavicle 6.41081e-015 1.15295e-014
rhumerus -30.9781 -4.34512 -87.5287
rradius 28.9648
rwrist 0.888794
rhand -19.2486 -7.39402
rfingers 7.12502
rthumb 7.06514 -37.2561
lclavicle 6.41081e-015 1.15295e-014
lhumerus -29.1465 2.96018 83.0502
lradius 26.0848
lwrist 16.0586
lhand -20.0612 13.4586
lfingers 7.12502
lthumb 6.28072 43.3455
rfemur -0.490296 1.22983 32.2328
rtibia 24.5654
rfoot -22.3385 -11.9168
rtoes 13.9389
lfemur -31.1302 11.4665 -11.8482
ltibia 45.6901
lfoot -5.12074 5.86985
ltoes -16.554
292
root 41.1177 16.4724 -4.0855 -93.9041 84.5939 -91.7916
lowerback 2.9007 -1.13022 3.96392
upperback 2.56094 -1.39255 0.148415
thorax 0.914172 -0.625402 -2.03859
lowerneck -8.61033 -0.309332 1.86604
upperneck 12.8136 -0.846008 1.81023
head 5.27603 -0.163304 0.202352
rclavicle 1.799e-014 -2.14687e-014
rhumerus -31.1124 -4.55585 -87.3879
rradius 28.8149
rwrist 0.905755
rhand -19.2574 -7.40713
rfingers 7.12502
rthumb 7.05671 -37.2695
lclavicle 1.799e-014 -2.14687e-014
lhumerus -29.3436 2.93755 83.0682
lradius 25.9556
lwrist 16.0284
lhand -19.9684 13.5074
lfingers 7.12502
lthumb 6.37032 43.3916
rfemur -0.792065 1.1669 32.2121
rtibia 24.693
rfoot -22.2932 -11.9522
rtoes 14.0683
lfemur -31.3117 11.4785 -11.8495
ltibia 47.5466
lfoot -5.53563 6.02482
ltoes -16.2971
293
root 41.0573 16.4757 -4.07882 -95.0597 84.6026 -92.9563
lowerback 2.8139 -1.12345 4.02522
upperback 2.52401 -1.38669 0.156245
thorax 0.924063 -0.622438 -2.0663
lowerneck -8.59179 -0.334951 1.82792
upperneck 12.8818 -0.873344 1.79936
head 5.2941 -0.177749 0.203367
rclavicle -1.16289e-014 2.34566e-014
rhumerus -31.2404 -4.71751 -87.2606
rradius 28.6781
rwrist 0.904739
rhand -19.2561 -7.41879
rfingers 7.12502
rthumb 7.05791 -37.2811
lclavicle -1.16289e-014 2.34566e-014
lhumerus -29.5266 2.93559 83.0843
lradius 25.8125
lwrist 15.9608
lhand -19.9022 13.5464
lfingers 7.12502
lthumb 6.43418 43.4287
rfemur -1.09726 1.10087 32.2059
rtibia 24.8273
rfoot -22.2432 -11.9644
rtoes 14.1849
lfemur -31.4388 11.4833 -11.8136
ltibia 49.3698
lfoot -5.89679 6.06367
ltoes -16.1756
294
root 40.9977 16.4783 -4.07279 -96.0427 84.6024 -93.9417
lowerback 2.72808 -1.11465 4.09073
upperback 2.49285 -1.37807 0.169138
thorax 0.939571 -0.617809 -2.09125
lowerneck -8.56295 -0.35747 1.79199
upperneck 12.9183 -0.896079 1.78687
head 5.30054 -0.190684 0.203832
rclavicle 4.42296e-015 -7.95139e-016
rhumerus -31.3559 -4.82956 -87.1484
rradius 28.5438
rwrist 0.901944
rhand -19.2399 -7.43085
rfingers 7.12502
rthumb 7.0736 -37.2926
lclavicle 4.42296e-015 -7.95139e-016
lhumerus -29.6949 2.97105 83.0914
lradius 25.6488
lwrist 15.8503
lhand -19.8629 13.5488
lfingers 7.12502
lthumb 6.47213 43.43
rfemur -1.39762 1.0287 32.202
rtibia 24.9699
rfoot -22.1868 -11.9511
rtoes 14.303
lfemur -31.4944 11.4773 -11.7514
ltibia 51.1439
lfoot -6.21104 6.00654
ltoes -16.1758
